<mxfile host="app.diagrams.net" modified="2024-03-13T11:16:15.457Z" agent="Mozilla/5.0 (Windows NT 10.0; Win64; x64) AppleWebKit/537.36 (KHTML, like Gecko) Chrome/122.0.0.0 Safari/537.36 Edg/122.0.0.0" etag="uPMa0jIu0ixm_t-c7vla" version="24.0.1" type="github">
  <diagram name="Page-1" id="e7e014a7-5840-1c2e-5031-d8a46d1fe8dd">
    <mxGraphModel dx="2084" dy="1070" grid="1" gridSize="10" guides="1" tooltips="1" connect="1" arrows="1" fold="1" page="1" pageScale="1" pageWidth="1169" pageHeight="826" background="none" math="0" shadow="0">
      <root>
        <mxCell id="0" />
        <mxCell id="1" parent="0" />
        <mxCell id="2" value="Người làm đơn   " style="swimlane;whiteSpace=wrap" parent="1" vertex="1">
          <mxGeometry x="180" y="128" width="280" height="672" as="geometry" />
        </mxCell>
        <mxCell id="JKLkTeHu5JcKai8tCo8b-76" style="edgeStyle=orthogonalEdgeStyle;rounded=0;orthogonalLoop=1;jettySize=auto;html=1;exitX=0.5;exitY=1;exitDx=0;exitDy=0;entryX=0.5;entryY=0;entryDx=0;entryDy=0;" edge="1" parent="2" source="5" target="7">
          <mxGeometry relative="1" as="geometry" />
        </mxCell>
        <mxCell id="5" value="" style="ellipse;shape=startState;fillColor=#000000;strokeColor=#ff0000;" parent="2" vertex="1">
          <mxGeometry x="125" y="72" width="30" height="30" as="geometry" />
        </mxCell>
        <mxCell id="JKLkTeHu5JcKai8tCo8b-77" style="edgeStyle=orthogonalEdgeStyle;rounded=0;orthogonalLoop=1;jettySize=auto;html=1;exitX=0.5;exitY=1;exitDx=0;exitDy=0;entryX=0.5;entryY=0;entryDx=0;entryDy=0;" edge="1" parent="2" source="7" target="8">
          <mxGeometry relative="1" as="geometry" />
        </mxCell>
        <mxCell id="7" value="Xin giảm định mức" style="" parent="2" vertex="1">
          <mxGeometry x="60" y="152" width="160" height="50" as="geometry" />
        </mxCell>
        <mxCell id="8" value="Nộp cho trưởng phòng" style="" parent="2" vertex="1">
          <mxGeometry x="60" y="287" width="160" height="50" as="geometry" />
        </mxCell>
        <mxCell id="3" value="Trưởng phòng" style="swimlane;whiteSpace=wrap" parent="1" vertex="1">
          <mxGeometry x="460" y="128" width="280" height="672" as="geometry" />
        </mxCell>
        <mxCell id="JKLkTeHu5JcKai8tCo8b-62" style="edgeStyle=orthogonalEdgeStyle;rounded=0;orthogonalLoop=1;jettySize=auto;html=1;exitX=0.5;exitY=0;exitDx=0;exitDy=0;entryX=0.5;entryY=1;entryDx=0;entryDy=0;" edge="1" parent="3" source="JKLkTeHu5JcKai8tCo8b-50" target="JKLkTeHu5JcKai8tCo8b-60">
          <mxGeometry relative="1" as="geometry" />
        </mxCell>
        <mxCell id="JKLkTeHu5JcKai8tCo8b-65" style="edgeStyle=orthogonalEdgeStyle;rounded=0;orthogonalLoop=1;jettySize=auto;html=1;exitX=0.5;exitY=1;exitDx=0;exitDy=0;entryX=0.5;entryY=0;entryDx=0;entryDy=0;" edge="1" parent="3" source="JKLkTeHu5JcKai8tCo8b-50" target="JKLkTeHu5JcKai8tCo8b-64">
          <mxGeometry relative="1" as="geometry" />
        </mxCell>
        <mxCell id="JKLkTeHu5JcKai8tCo8b-50" value="Xem xét" style="rhombus;whiteSpace=wrap;html=1;" vertex="1" parent="3">
          <mxGeometry x="100" y="272" width="80" height="80" as="geometry" />
        </mxCell>
        <mxCell id="JKLkTeHu5JcKai8tCo8b-56" value="Trả về người làm đơn" style="text;html=1;align=center;verticalAlign=middle;whiteSpace=wrap;rounded=0;" vertex="1" parent="3">
          <mxGeometry x="40" y="52" width="120" height="30" as="geometry" />
        </mxCell>
        <mxCell id="JKLkTeHu5JcKai8tCo8b-60" value="Không đồng ý" style="rounded=0;whiteSpace=wrap;html=1;" vertex="1" parent="3">
          <mxGeometry x="60" y="152" width="160" height="48" as="geometry" />
        </mxCell>
        <mxCell id="JKLkTeHu5JcKai8tCo8b-64" value="Đồng ý" style="rounded=0;whiteSpace=wrap;html=1;" vertex="1" parent="3">
          <mxGeometry x="60" y="432" width="160" height="60" as="geometry" />
        </mxCell>
        <mxCell id="4" value="Ban biên tập" style="swimlane;whiteSpace=wrap" parent="1" vertex="1">
          <mxGeometry x="740" y="128" width="280" height="672" as="geometry" />
        </mxCell>
        <mxCell id="JKLkTeHu5JcKai8tCo8b-79" style="edgeStyle=orthogonalEdgeStyle;rounded=0;orthogonalLoop=1;jettySize=auto;html=1;exitX=0.5;exitY=0;exitDx=0;exitDy=0;entryX=0.5;entryY=1;entryDx=0;entryDy=0;" edge="1" parent="4" source="JKLkTeHu5JcKai8tCo8b-52" target="JKLkTeHu5JcKai8tCo8b-69">
          <mxGeometry relative="1" as="geometry" />
        </mxCell>
        <mxCell id="JKLkTeHu5JcKai8tCo8b-80" style="edgeStyle=orthogonalEdgeStyle;rounded=0;orthogonalLoop=1;jettySize=auto;html=1;exitX=0.5;exitY=1;exitDx=0;exitDy=0;entryX=0.5;entryY=0;entryDx=0;entryDy=0;" edge="1" parent="4" source="JKLkTeHu5JcKai8tCo8b-52" target="15">
          <mxGeometry relative="1" as="geometry" />
        </mxCell>
        <mxCell id="JKLkTeHu5JcKai8tCo8b-52" value="Xem xét" style="rhombus;whiteSpace=wrap;html=1;" vertex="1" parent="4">
          <mxGeometry x="100" y="422" width="80" height="80" as="geometry" />
        </mxCell>
        <mxCell id="JKLkTeHu5JcKai8tCo8b-68" value="Gửi lên ban biên tập" style="text;html=1;align=center;verticalAlign=middle;whiteSpace=wrap;rounded=0;" vertex="1" parent="4">
          <mxGeometry x="-40" y="432" width="120" height="30" as="geometry" />
        </mxCell>
        <mxCell id="JKLkTeHu5JcKai8tCo8b-69" value="Không đồng ý" style="rounded=0;whiteSpace=wrap;html=1;" vertex="1" parent="4">
          <mxGeometry x="60" y="152" width="160" height="60" as="geometry" />
        </mxCell>
        <mxCell id="JKLkTeHu5JcKai8tCo8b-71" value="Trả về người làm đơn" style="text;html=1;align=center;verticalAlign=middle;whiteSpace=wrap;rounded=0;" vertex="1" parent="4">
          <mxGeometry y="52" width="120" height="30" as="geometry" />
        </mxCell>
        <mxCell id="15" value="Đồng ý" style="" parent="4" vertex="1">
          <mxGeometry x="60" y="592" width="160" height="50" as="geometry" />
        </mxCell>
        <mxCell id="JKLkTeHu5JcKai8tCo8b-46" value="Hệ thống" style="swimlane;whiteSpace=wrap" vertex="1" parent="1">
          <mxGeometry x="1020" y="128" width="280" height="672" as="geometry" />
        </mxCell>
        <mxCell id="JKLkTeHu5JcKai8tCo8b-75" style="edgeStyle=orthogonalEdgeStyle;rounded=0;orthogonalLoop=1;jettySize=auto;html=1;exitX=0.5;exitY=0;exitDx=0;exitDy=0;entryX=0.5;entryY=1;entryDx=0;entryDy=0;" edge="1" parent="JKLkTeHu5JcKai8tCo8b-46" source="JKLkTeHu5JcKai8tCo8b-81" target="JKLkTeHu5JcKai8tCo8b-48">
          <mxGeometry relative="1" as="geometry" />
        </mxCell>
        <mxCell id="JKLkTeHu5JcKai8tCo8b-47" value="Cập nhật định mức" style="" vertex="1" parent="JKLkTeHu5JcKai8tCo8b-46">
          <mxGeometry x="60" y="592" width="160" height="50" as="geometry" />
        </mxCell>
        <mxCell id="JKLkTeHu5JcKai8tCo8b-48" value="" style="ellipse;html=1;shape=endState;fillColor=#000000;strokeColor=#ff0000;" vertex="1" parent="JKLkTeHu5JcKai8tCo8b-46">
          <mxGeometry x="125" y="292" width="30" height="30" as="geometry" />
        </mxCell>
        <mxCell id="JKLkTeHu5JcKai8tCo8b-73" value="Cập nhật vào hệ thống" style="text;html=1;align=center;verticalAlign=middle;whiteSpace=wrap;rounded=0;" vertex="1" parent="JKLkTeHu5JcKai8tCo8b-46">
          <mxGeometry x="-60" y="552" width="130" height="30" as="geometry" />
        </mxCell>
        <mxCell id="JKLkTeHu5JcKai8tCo8b-81" value="Hiện thông báo" style="rounded=0;whiteSpace=wrap;html=1;" vertex="1" parent="JKLkTeHu5JcKai8tCo8b-46">
          <mxGeometry x="60" y="432" width="160" height="60" as="geometry" />
        </mxCell>
        <mxCell id="JKLkTeHu5JcKai8tCo8b-83" value="" style="edgeStyle=orthogonalEdgeStyle;rounded=0;orthogonalLoop=1;jettySize=auto;html=1;exitX=0.5;exitY=0;exitDx=0;exitDy=0;entryX=0.5;entryY=1;entryDx=0;entryDy=0;" edge="1" parent="JKLkTeHu5JcKai8tCo8b-46" source="JKLkTeHu5JcKai8tCo8b-47" target="JKLkTeHu5JcKai8tCo8b-81">
          <mxGeometry relative="1" as="geometry">
            <mxPoint x="1160" y="720" as="sourcePoint" />
            <mxPoint x="1160" y="450" as="targetPoint" />
          </mxGeometry>
        </mxCell>
        <mxCell id="JKLkTeHu5JcKai8tCo8b-55" style="edgeStyle=orthogonalEdgeStyle;rounded=0;orthogonalLoop=1;jettySize=auto;html=1;exitX=0.5;exitY=0;exitDx=0;exitDy=0;entryX=1;entryY=0.5;entryDx=0;entryDy=0;" edge="1" parent="1" source="JKLkTeHu5JcKai8tCo8b-60" target="5">
          <mxGeometry relative="1" as="geometry" />
        </mxCell>
        <mxCell id="JKLkTeHu5JcKai8tCo8b-67" style="edgeStyle=orthogonalEdgeStyle;rounded=0;orthogonalLoop=1;jettySize=auto;html=1;exitX=1;exitY=0.5;exitDx=0;exitDy=0;entryX=0;entryY=0.5;entryDx=0;entryDy=0;" edge="1" parent="1" source="JKLkTeHu5JcKai8tCo8b-64" target="JKLkTeHu5JcKai8tCo8b-52">
          <mxGeometry relative="1" as="geometry" />
        </mxCell>
        <mxCell id="JKLkTeHu5JcKai8tCo8b-70" style="edgeStyle=orthogonalEdgeStyle;rounded=0;orthogonalLoop=1;jettySize=auto;html=1;exitX=0.5;exitY=0;exitDx=0;exitDy=0;entryX=1;entryY=0.5;entryDx=0;entryDy=0;" edge="1" parent="1" source="JKLkTeHu5JcKai8tCo8b-69" target="5">
          <mxGeometry relative="1" as="geometry" />
        </mxCell>
        <mxCell id="JKLkTeHu5JcKai8tCo8b-74" style="edgeStyle=orthogonalEdgeStyle;rounded=0;orthogonalLoop=1;jettySize=auto;html=1;exitX=1;exitY=0.5;exitDx=0;exitDy=0;entryX=0;entryY=0.5;entryDx=0;entryDy=0;" edge="1" parent="1" source="15" target="JKLkTeHu5JcKai8tCo8b-47">
          <mxGeometry relative="1" as="geometry" />
        </mxCell>
        <mxCell id="JKLkTeHu5JcKai8tCo8b-78" style="edgeStyle=orthogonalEdgeStyle;rounded=0;orthogonalLoop=1;jettySize=auto;html=1;exitX=1;exitY=0.5;exitDx=0;exitDy=0;entryX=0;entryY=0.5;entryDx=0;entryDy=0;" edge="1" parent="1" source="8" target="JKLkTeHu5JcKai8tCo8b-50">
          <mxGeometry relative="1" as="geometry" />
        </mxCell>
        <mxCell id="JKLkTeHu5JcKai8tCo8b-86" value="Người lập" style="swimlane;whiteSpace=wrap" vertex="1" parent="1">
          <mxGeometry x="2338" y="138" width="280" height="672" as="geometry" />
        </mxCell>
        <mxCell id="JKLkTeHu5JcKai8tCo8b-87" style="edgeStyle=orthogonalEdgeStyle;rounded=0;orthogonalLoop=1;jettySize=auto;html=1;exitX=0.5;exitY=1;exitDx=0;exitDy=0;entryX=0.5;entryY=0;entryDx=0;entryDy=0;" edge="1" parent="JKLkTeHu5JcKai8tCo8b-86" source="JKLkTeHu5JcKai8tCo8b-88" target="JKLkTeHu5JcKai8tCo8b-90">
          <mxGeometry relative="1" as="geometry" />
        </mxCell>
        <mxCell id="JKLkTeHu5JcKai8tCo8b-88" value="" style="ellipse;shape=startState;fillColor=#000000;strokeColor=#ff0000;" vertex="1" parent="JKLkTeHu5JcKai8tCo8b-86">
          <mxGeometry x="125" y="72" width="30" height="30" as="geometry" />
        </mxCell>
        <mxCell id="JKLkTeHu5JcKai8tCo8b-89" style="edgeStyle=orthogonalEdgeStyle;rounded=0;orthogonalLoop=1;jettySize=auto;html=1;exitX=0.5;exitY=1;exitDx=0;exitDy=0;entryX=0.5;entryY=0;entryDx=0;entryDy=0;" edge="1" parent="JKLkTeHu5JcKai8tCo8b-86" source="JKLkTeHu5JcKai8tCo8b-90" target="JKLkTeHu5JcKai8tCo8b-91">
          <mxGeometry relative="1" as="geometry" />
        </mxCell>
        <mxCell id="JKLkTeHu5JcKai8tCo8b-90" value="Lập bảng kê" style="" vertex="1" parent="JKLkTeHu5JcKai8tCo8b-86">
          <mxGeometry x="60" y="142" width="160" height="50" as="geometry" />
        </mxCell>
        <mxCell id="JKLkTeHu5JcKai8tCo8b-91" value="Nộp cho thủ trưởng" style="" vertex="1" parent="JKLkTeHu5JcKai8tCo8b-86">
          <mxGeometry x="60" y="302" width="160" height="50" as="geometry" />
        </mxCell>
        <mxCell id="JKLkTeHu5JcKai8tCo8b-99" value="Thủ trưởng đơn vị" style="swimlane;whiteSpace=wrap" vertex="1" parent="1">
          <mxGeometry x="2618" y="138" width="280" height="672" as="geometry" />
        </mxCell>
        <mxCell id="JKLkTeHu5JcKai8tCo8b-127" style="edgeStyle=orthogonalEdgeStyle;rounded=0;orthogonalLoop=1;jettySize=auto;html=1;exitX=0.5;exitY=0;exitDx=0;exitDy=0;entryX=0.5;entryY=1;entryDx=0;entryDy=0;" edge="1" parent="JKLkTeHu5JcKai8tCo8b-99" source="JKLkTeHu5JcKai8tCo8b-123" target="JKLkTeHu5JcKai8tCo8b-125">
          <mxGeometry relative="1" as="geometry" />
        </mxCell>
        <mxCell id="JKLkTeHu5JcKai8tCo8b-128" style="edgeStyle=orthogonalEdgeStyle;rounded=0;orthogonalLoop=1;jettySize=auto;html=1;exitX=0.5;exitY=1;exitDx=0;exitDy=0;entryX=0.5;entryY=0;entryDx=0;entryDy=0;" edge="1" parent="JKLkTeHu5JcKai8tCo8b-99" source="JKLkTeHu5JcKai8tCo8b-123" target="JKLkTeHu5JcKai8tCo8b-124">
          <mxGeometry relative="1" as="geometry" />
        </mxCell>
        <mxCell id="JKLkTeHu5JcKai8tCo8b-123" value="Duyệt bảng kê" style="rhombus;whiteSpace=wrap;html=1;" vertex="1" parent="JKLkTeHu5JcKai8tCo8b-99">
          <mxGeometry x="90.5" y="280.5" width="99" height="93" as="geometry" />
        </mxCell>
        <mxCell id="JKLkTeHu5JcKai8tCo8b-124" value="Được duyệt" style="rounded=0;whiteSpace=wrap;html=1;" vertex="1" parent="JKLkTeHu5JcKai8tCo8b-99">
          <mxGeometry x="61" y="442" width="158" height="60" as="geometry" />
        </mxCell>
        <mxCell id="JKLkTeHu5JcKai8tCo8b-125" value="Không được duyệt" style="rounded=0;whiteSpace=wrap;html=1;" vertex="1" parent="JKLkTeHu5JcKai8tCo8b-99">
          <mxGeometry x="61" y="142" width="158" height="60" as="geometry" />
        </mxCell>
        <mxCell id="JKLkTeHu5JcKai8tCo8b-134" value="Trả về người lập" style="text;html=1;align=center;verticalAlign=middle;whiteSpace=wrap;rounded=0;" vertex="1" parent="JKLkTeHu5JcKai8tCo8b-99">
          <mxGeometry x="22" y="62" width="100" height="30" as="geometry" />
        </mxCell>
        <mxCell id="JKLkTeHu5JcKai8tCo8b-107" value="Hệ thống" style="swimlane;whiteSpace=wrap" vertex="1" parent="1">
          <mxGeometry x="2898" y="138" width="280" height="672" as="geometry" />
        </mxCell>
        <mxCell id="JKLkTeHu5JcKai8tCo8b-130" style="edgeStyle=orthogonalEdgeStyle;rounded=0;orthogonalLoop=1;jettySize=auto;html=1;exitX=0.5;exitY=0;exitDx=0;exitDy=0;entryX=0.5;entryY=1;entryDx=0;entryDy=0;" edge="1" parent="JKLkTeHu5JcKai8tCo8b-107" source="JKLkTeHu5JcKai8tCo8b-109" target="JKLkTeHu5JcKai8tCo8b-110">
          <mxGeometry relative="1" as="geometry" />
        </mxCell>
        <mxCell id="JKLkTeHu5JcKai8tCo8b-109" value="Lưu bảng kê" style="" vertex="1" parent="JKLkTeHu5JcKai8tCo8b-107">
          <mxGeometry x="60" y="447" width="160" height="50" as="geometry" />
        </mxCell>
        <mxCell id="JKLkTeHu5JcKai8tCo8b-110" value="" style="ellipse;html=1;shape=endState;fillColor=#000000;strokeColor=#ff0000;" vertex="1" parent="JKLkTeHu5JcKai8tCo8b-107">
          <mxGeometry x="125" y="312" width="30" height="30" as="geometry" />
        </mxCell>
        <mxCell id="JKLkTeHu5JcKai8tCo8b-135" value="Đưa vào hệ thống" style="text;html=1;align=center;verticalAlign=middle;whiteSpace=wrap;rounded=0;" vertex="1" parent="JKLkTeHu5JcKai8tCo8b-107">
          <mxGeometry x="-48" y="432" width="100" height="30" as="geometry" />
        </mxCell>
        <mxCell id="JKLkTeHu5JcKai8tCo8b-126" style="edgeStyle=orthogonalEdgeStyle;rounded=0;orthogonalLoop=1;jettySize=auto;html=1;exitX=1;exitY=0.5;exitDx=0;exitDy=0;entryX=0;entryY=0.5;entryDx=0;entryDy=0;" edge="1" parent="1" source="JKLkTeHu5JcKai8tCo8b-91" target="JKLkTeHu5JcKai8tCo8b-123">
          <mxGeometry relative="1" as="geometry" />
        </mxCell>
        <mxCell id="JKLkTeHu5JcKai8tCo8b-129" style="edgeStyle=orthogonalEdgeStyle;rounded=0;orthogonalLoop=1;jettySize=auto;html=1;exitX=1;exitY=0.5;exitDx=0;exitDy=0;entryX=0;entryY=0.5;entryDx=0;entryDy=0;" edge="1" parent="1" source="JKLkTeHu5JcKai8tCo8b-124" target="JKLkTeHu5JcKai8tCo8b-109">
          <mxGeometry relative="1" as="geometry" />
        </mxCell>
        <mxCell id="JKLkTeHu5JcKai8tCo8b-133" style="edgeStyle=orthogonalEdgeStyle;rounded=0;orthogonalLoop=1;jettySize=auto;html=1;exitX=0.5;exitY=0;exitDx=0;exitDy=0;entryX=1;entryY=0.5;entryDx=0;entryDy=0;" edge="1" parent="1" source="JKLkTeHu5JcKai8tCo8b-125" target="JKLkTeHu5JcKai8tCo8b-88">
          <mxGeometry relative="1" as="geometry" />
        </mxCell>
      </root>
    </mxGraphModel>
  </diagram>
</mxfile>
